<svg width="652.5px" height="124.4px" xmlns="http://www.w3.org/2000/svg" viewBox="-76.239990234375 12.780004882812499 652.47998046875 124.439990234375" style="background: rgba(0, 0, 0, 0) none repeat scroll 0% 0%" preserveAspectRatio="xMidYMid"><defs><filter id="editing-extrusion" x="-100%" y="-100%" width="300%" height="300%"><feFlood result="color1" flood-color="#444"></feFlood><feConvolveMatrix order="8,8" divisor="1" kernelMatrix="1 0 0 0 0 0 0 0 0 1 0 0 0 0 0 0 0 0 1 0 0 0 0 0 0 0 0 1 0 0 0 0 0 0 0 0 1 0 0 0 0 0 0 0 0 1 0 0 0 0 0 0 0 0 1 0 0 0 0 0 0 0 0 1" in="SourceAlpha" result="extrude"></feConvolveMatrix><feComposite in="color1" in2="extrude" result="comp-extrude" operator="in"></feComposite><feOffset dx="4" dy="4" in="comp-extrude" result="offset-extrude"></feOffset><feMerge><feMergeNode in="offset-extrude"></feMergeNode><feMergeNode in="SourceGraphic"></feMergeNode></feMerge></filter></defs><g transform="rotate(0,212.5,87.9)" filter="url(#editing-extrusion)"><g transform="matrix(1.2,0,0,1.7,-14.1,39.3)"><path d="M -20.2 30.9 L -20.2 30.9 L -20.2 30.9 Q -22.2 35.7 -28.5 35.7 L -28.5 35.7 L -28.5 35.7 Q -31.8 35.7 -33.8 33.4 L -33.8 33.4 L -33.8 33.4 Q -35.5 31.5 -35.5 29.5 L -35.5 29.5 L -35.5 29.5 Q -35.5 24.3 -33.2 14.2 L -33.2 14.2 L -30.8 1.8 L -17.8 0.5 L -21.7 20.7 L -21.7 20.7 Q -22.8 25.4 -22.8 27.1 L -22.8 27.1 L -22.8 27.1 Q -22.8 30.8 -20.2 30.9 Z M -29.7 -7.1 L -29.7 -7.1 L -29.7 -7.1 Q -29.7 -9.6 -27.6 -11 L -27.6 -11 L -27.6 -11 Q -25.5 -12.3 -22.5 -12.3 L -22.5 -12.3 L -22.5 -12.3 Q -19.5 -12.3 -17.7 -11 L -17.7 -11 L -17.7 -11 Q -15.8 -9.6 -15.8 -7.1 L -15.8 -7.1 L -15.8 -7.1 Q -15.8 -4.6 -17.9 -3.4 L -17.9 -3.4 L -17.9 -3.4 Q -19.9 -2.1 -22.9 -2.1 L -22.9 -2.1 L -22.9 -2.1 Q -25.9 -2.1 -27.8 -3.4 L -27.8 -3.4 L -27.8 -3.4 Q -29.7 -4.6 -29.7 -7.1 Z M 31.3 35.7 L 31.3 35.7 L 31.3 35.7 Q 23.6 35.7 23.6 29.7 L 23.6 29.7 L 23.6 29.7 Q 23.6 27 24.7 22 L 24.7 22 L 24.7 22 Q 25.8 16.9 26.2 14.8 L 26.2 14.8 L 26.2 14.8 Q 27.1 10.1 27.1 8.7 L 27.1 8.7 L 27.1 8.7 Q 27.1 5.4 24.7 5.4 L 24.7 5.4 L 24.7 5.4 Q 23.1 5.4 21.5 7.6 L 21.5 7.6 L 21.5 7.6 Q 20 9.8 19.3 14.2 L 19.3 14.2 L 15.3 34.4 L 2.9 35.7 L 6.3 18.3 L 6.3 18.3 Q 6.9 15.4 7.4 12.1 L 7.4 12.1 L 7.4 12.1 Q 7.9 8.9 7.9 8.4 L 7.9 8.4 L 7.9 8.4 Q 7.9 5.4 5.7 5.4 L 5.7 5.4 L 5.7 5.4 Q 4.3 5.4 2.7 7.6 L 2.7 7.6 L 2.7 7.6 Q 1.1 9.8 0.2 14.2 L 0.2 14.2 L -3.7 34.4 L -16.3 35.7 L -9.6 1.8 L 0.8 0.5 L -0.3 6.9 L -0.3 6.9 Q 1.4 3.5 4.5 2 L 4.5 2 L 4.5 2 Q 7.5 0.5 12.3 0.5 L 12.3 0.5 L 12.3 0.5 Q 15.1 0.5 16.9 1.8 L 16.9 1.8 L 16.9 1.8 Q 18.7 3.2 19.2 5.3 L 19.2 5.3 L 19.2 5.3 Q 20.3 3.1 23.1 1.8 L 23.1 1.8 L 23.1 1.8 Q 25.9 0.5 29.3 0.5 L 29.3 0.5 L 29.3 0.5 Q 32.7 0.5 34.4 1.2 L 34.4 1.2 L 34.4 1.2 Q 36.1 2 37.2 3.2 L 37.2 3.2 L 37.2 3.2 Q 38.9 5.4 38.9 9.5 L 38.9 9.5 L 38.9 9.5 Q 38.9 13.5 37.2 21.9 L 37.2 21.9 L 37.2 21.9 Q 36.3 26 36.3 27.5 L 36.3 27.5 L 36.3 27.5 Q 36.3 29 37.1 29.9 L 37.1 29.9 L 37.1 29.9 Q 38 30.8 39.3 30.9 L 39.3 30.9 L 39.3 30.9 Q 38.6 33.1 36.4 34.4 L 36.4 34.4 L 36.4 34.4 Q 34.2 35.7 31.3 35.7 Z M 47 32.5 L 47 32.5 L 47 32.5 Q 45.5 30.8 44.8 28.2 L 44.8 28.2 L 44.8 28.2 Q 44.1 25.6 44.1 21.3 L 44.1 21.3 L 44.1 21.3 Q 44.1 17 45.6 13.1 L 45.6 13.1 L 45.6 13.1 Q 47.1 9.2 49.8 6.4 L 49.8 6.4 L 49.8 6.4 Q 55.3 0.5 64.4 0.5 L 64.4 0.5 L 64.4 0.5 Q 67.6 0.5 70 1.6 L 70 1.6 L 80.9 0.5 L 76.2 25.4 L 76.2 25.4 Q 76 26.2 76 27.6 L 76 27.6 L 76 27.6 Q 76 29 76.9 29.9 L 76.9 29.9 L 76.9 29.9 Q 77.7 30.8 79 30.9 L 79 30.9 L 79 30.9 Q 78.4 33.1 76 34.4 L 76 34.4 L 76 34.4 Q 73.7 35.7 71.1 35.7 L 71.1 35.7 L 71.1 35.7 Q 68.5 35.7 66.7 34.7 L 66.7 34.7 L 66.7 34.7 Q 64.9 33.7 64.4 32 L 64.4 32 L 64.4 32 Q 63.4 33.6 61.2 34.7 L 61.2 34.7 L 61.2 34.7 Q 59 35.7 56.1 35.7 L 56.1 35.7 L 56.1 35.7 Q 53.2 35.7 50.9 34.9 L 50.9 34.9 L 50.9 34.9 Q 48.5 34.1 47 32.5 Z M 60.5 6.5 L 60.5 6.5 L 60.5 6.5 Q 59.7 7.7 59.1 9.6 L 59.1 9.6 L 59.1 9.6 Q 58.5 11.6 57.4 16.8 L 57.4 16.8 L 57.4 16.8 Q 56.4 22 56.4 25.7 L 56.4 25.7 L 56.4 25.7 Q 56.4 29.4 56.9 30.5 L 56.9 30.5 L 56.9 30.5 Q 57.5 31.6 58.5 31.6 L 58.5 31.6 L 58.5 31.6 Q 60.6 31.6 62.1 29.6 L 62.1 29.6 L 62.1 29.6 Q 63.6 27.7 64.2 24.2 L 64.2 24.2 L 67.6 5.5 L 67.6 5.5 Q 66.2 4.3 64.6 4.3 L 64.6 4.3 L 64.6 4.3 Q 63.1 4.3 62.1 4.8 L 62.1 4.8 L 62.1 4.8 Q 61.2 5.3 60.5 6.5 Z M 88.7 7.7 L 88.7 7.7 L 88.7 7.7 Q 90.9 4.6 94.1 2.5 L 94.1 2.5 L 94.1 2.5 Q 97.4 0.5 101.5 0.5 L 101.5 0.5 L 101.5 0.5 Q 105.5 0.5 107.4 1.8 L 107.4 1.8 L 120 0.5 L 115.6 25.1 L 115.6 25.1 Q 113.4 37.6 108.6 42.5 L 108.6 42.5 L 108.6 42.5 Q 104.1 47.2 95.3 47.2 L 95.3 47.2 L 95.3 47.2 Q 88.5 47.2 84.7 45.1 L 84.7 45.1 L 84.7 45.1 Q 80.9 43 80.9 39.5 L 80.9 39.5 L 80.9 39.5 Q 80.9 36.8 82.9 35.3 L 82.9 35.3 L 82.9 35.3 Q 84.8 33.8 87.9 33.8 L 87.9 33.8 L 87.9 33.8 Q 90.6 33.8 92.6 35 L 92.6 35 L 92.6 35 Q 93.9 35.7 94.4 36.6 L 94.4 36.6 L 94.4 36.6 Q 93 37.9 93 40 L 93 40 L 93 40 Q 93 42.7 95.5 42.7 L 95.5 42.7 L 95.5 42.7 Q 99.8 42.7 102.2 32.6 L 102.2 32.6 L 102.2 32.6 Q 102.9 29.9 103.5 27.1 L 103.5 27.1 L 103.5 27.1 Q 100.6 30.6 94.1 30.6 L 94.1 30.6 L 94.1 30.6 Q 89.6 30.6 86.9 28.5 L 86.9 28.5 L 86.9 28.5 Q 84.3 26.3 84.3 21.2 L 84.3 21.2 L 84.3 21.2 Q 84.3 18 85.4 14.3 L 85.4 14.3 L 85.4 14.3 Q 86.5 10.7 88.7 7.7 Z M 97 21.3 L 97 21.3 L 97 21.3 Q 97 25.7 99.2 25.7 L 99.2 25.7 L 99.2 25.7 Q 100.8 25.7 102.2 24 L 102.2 24 L 102.2 24 Q 103.4 22.7 103.8 20.7 L 103.8 20.7 L 107.1 4.3 L 107.1 4.3 Q 106.8 4.2 106.5 4.1 L 106.5 4.1 L 106.5 4.1 Q 105.8 3.8 105 3.8 L 105 3.8 L 105 3.8 Q 101.1 3.8 98.8 10.2 L 98.8 10.2 L 98.8 10.2 Q 97 15.2 97 21.3 Z M 148.4 23.6 L 148.4 23.6 L 148.4 23.6 Q 150 24.7 150 27.1 L 150 27.1 L 150 27.1 Q 150 29.5 148.8 31 L 148.8 31 L 148.8 31 Q 147.6 32.5 145.6 33.6 L 145.6 33.6 L 145.6 33.6 Q 141.5 35.7 137.1 35.7 L 137.1 35.7 L 137.1 35.7 Q 132.6 35.7 130.1 34.7 L 130.1 34.7 L 130.1 34.7 Q 127.5 33.8 125.7 32 L 125.7 32 L 125.7 32 Q 122.3 28.6 122.3 22.4 L 122.3 22.4 L 122.3 22.4 Q 122.3 12.7 127.6 6.8 L 127.6 6.8 L 127.6 6.8 Q 133.2 0.5 143 0.5 L 143 0.5 L 143 0.5 Q 149.1 0.5 152.1 3 L 152.1 3 L 152.1 3 Q 154.3 5 154.3 8.1 L 154.3 8.1 L 154.3 8.1 Q 154.3 19.4 134.9 19.4 L 134.9 19.4 L 134.9 19.4 Q 134.6 21 134.6 22.4 L 134.6 22.4 L 134.6 22.4 Q 134.6 25.4 135.9 26.5 L 135.9 26.5 L 135.9 26.5 Q 137.3 27.6 139.7 27.6 L 139.7 27.6 L 139.7 27.6 Q 142.1 27.6 144.7 26.5 L 144.7 26.5 L 144.7 26.5 Q 147.3 25.4 148.4 23.6 Z M 135.3 16.6 L 135.3 16.6 L 135.3 16.6 Q 139.9 16.6 142.5 13.8 L 142.5 13.8 L 142.5 13.8 Q 145.1 11.1 145.1 6.8 L 145.1 6.8 L 145.1 6.8 Q 145.1 5.3 144.6 4.5 L 144.6 4.5 L 144.6 4.5 Q 144 3.7 142.9 3.7 L 142.9 3.7 L 142.9 3.7 Q 141.9 3.7 140.9 4.2 L 140.9 4.2 L 140.9 4.2 Q 140 4.6 139 6 L 139 6 L 139 6 Q 136.7 9.2 135.3 16.6 Z M 175.7 11.9 L 175.7 11.9 L 175.7 11.9 Q 176.5 9.6 176.5 7.5 L 176.5 7.5 L 176.5 7.5 Q 176.5 3.7 173.5 3.7 L 173.5 3.7 L 173.5 3.7 Q 171.9 3.7 170.6 5.2 L 170.6 5.2 L 170.6 5.2 Q 169.3 6.6 169.3 8.4 L 169.3 8.4 L 169.3 8.4 Q 169.3 9.7 170.3 10.7 L 170.3 10.7 L 170.3 10.7 Q 171.7 12.1 175.5 14.4 L 175.5 14.4 L 175.5 14.4 Q 179.3 16.7 180.7 18.6 L 180.7 18.6 L 180.7 18.6 Q 182.2 20.5 182.2 23.1 L 182.2 23.1 L 182.2 23.1 Q 182.2 25.7 180.9 28.1 L 180.9 28.1 L 180.9 28.1 Q 179.7 30.4 177.4 32.1 L 177.4 32.1 L 177.4 32.1 Q 172.6 35.7 165 35.7 L 165 35.7 L 165 35.7 Q 160.8 35.7 157.6 33.5 L 157.6 33.5 L 157.6 33.5 Q 154.4 31.4 154.4 28.9 L 154.4 28.9 L 154.4 28.9 Q 154.4 26.4 156.2 24.9 L 156.2 24.9 L 156.2 24.9 Q 158.1 23.5 160.7 23.5 L 160.7 23.5 L 160.7 23.5 Q 163.4 23.5 165.1 24.5 L 165.1 24.5 L 165.1 24.5 Q 164.3 26.6 164.3 28 L 164.3 28 L 164.3 28 Q 164.3 32.2 167.8 32.2 L 167.8 32.2 L 167.8 32.2 Q 169.4 32.2 170.4 31.3 L 170.4 31.3 L 170.4 31.3 Q 171.4 30.3 171.4 28.6 L 171.4 28.6 L 171.4 28.6 Q 171.4 25.4 165.9 21.9 L 165.9 21.9 L 165.9 21.9 Q 161.4 19 160.4 17.8 L 160.4 17.8 L 160.4 17.8 Q 158.7 15.8 158.7 13.2 L 158.7 13.2 L 158.7 13.2 Q 158.7 10.7 159.9 8.2 L 159.9 8.2 L 159.9 8.2 Q 161.1 5.8 163.4 4.1 L 163.4 4.1 L 163.4 4.1 Q 168 0.5 176.2 0.5 L 176.2 0.5 L 176.2 0.5 Q 180.3 0.5 182.8 2.1 L 182.8 2.1 L 182.8 2.1 Q 185.3 3.8 185.3 6.6 L 185.3 6.6 L 185.3 6.6 Q 185.3 9.4 183.6 11 L 183.6 11 L 183.6 11 Q 181.9 12.6 178.8 12.6 L 178.8 12.6 L 178.8 12.6 Q 176.7 12.6 175.7 11.9 Z M 205.3 7.7 L 205.3 7.7 L 205.3 7.7 Q 207.5 4.6 210.8 2.5 L 210.8 2.5 L 210.8 2.5 Q 214.1 0.5 218.1 0.5 L 218.1 0.5 L 218.1 0.5 Q 222.2 0.5 224.1 1.8 L 224.1 1.8 L 236.6 0.5 L 232.3 25.1 L 232.3 25.1 Q 230.1 37.6 225.3 42.5 L 225.3 42.5 L 225.3 42.5 Q 220.8 47.2 211.9 47.2 L 211.9 47.2 L 211.9 47.2 Q 205.2 47.2 201.4 45.1 L 201.4 45.1 L 201.4 45.1 Q 197.5 43 197.5 39.5 L 197.5 39.5 L 197.5 39.5 Q 197.5 36.8 199.5 35.3 L 199.5 35.3 L 199.5 35.3 Q 201.5 33.8 204.6 33.8 L 204.6 33.8 L 204.6 33.8 Q 207.3 33.8 209.3 35 L 209.3 35 L 209.3 35 Q 210.5 35.7 211.1 36.6 L 211.1 36.6 L 211.1 36.6 Q 209.6 37.9 209.6 40 L 209.6 40 L 209.6 40 Q 209.6 42.7 212.2 42.7 L 212.2 42.7 L 212.2 42.7 Q 216.5 42.7 218.9 32.6 L 218.9 32.6 L 218.9 32.6 Q 219.6 29.9 220.2 27.1 L 220.2 27.1 L 220.2 27.1 Q 217.3 30.6 210.8 30.6 L 210.8 30.6 L 210.8 30.6 Q 206.2 30.6 203.6 28.5 L 203.6 28.5 L 203.6 28.5 Q 201 26.3 201 21.2 L 201 21.2 L 201 21.2 Q 201 18 202.1 14.3 L 202.1 14.3 L 202.1 14.3 Q 203.2 10.7 205.3 7.7 Z M 213.7 21.3 L 213.7 21.3 L 213.7 21.3 Q 213.7 25.7 215.9 25.7 L 215.9 25.7 L 215.9 25.7 Q 217.4 25.7 218.9 24 L 218.9 24 L 218.9 24 Q 220.1 22.7 220.5 20.7 L 220.5 20.7 L 223.8 4.3 L 223.8 4.3 Q 223.5 4.2 223.1 4.1 L 223.1 4.1 L 223.1 4.1 Q 222.5 3.8 221.7 3.8 L 221.7 3.8 L 221.7 3.8 Q 217.8 3.8 215.5 10.2 L 215.5 10.2 L 215.5 10.2 Q 213.7 15.2 213.7 21.3 Z M 241.9 32.5 L 241.9 32.5 L 241.9 32.5 Q 240.4 30.8 239.7 28.2 L 239.7 28.2 L 239.7 28.2 Q 239.1 25.6 239.1 21.3 L 239.1 21.3 L 239.1 21.3 Q 239.1 17 240.5 13.1 L 240.5 13.1 L 240.5 13.1 Q 242 9.2 244.7 6.4 L 244.7 6.4 L 244.7 6.4 Q 250.2 0.5 259.3 0.5 L 259.3 0.5 L 259.3 0.5 Q 262.6 0.5 264.9 1.6 L 264.9 1.6 L 275.9 0.5 L 271.1 25.4 L 271.1 25.4 Q 270.9 26.2 270.9 27.6 L 270.9 27.6 L 270.9 27.6 Q 270.9 29 271.8 29.9 L 271.8 29.9 L 271.8 29.9 Q 272.7 30.8 274 30.9 L 274 30.9 L 274 30.9 Q 273.3 33.1 271 34.4 L 271 34.4 L 271 34.4 Q 268.6 35.7 266 35.7 L 266 35.7 L 266 35.7 Q 263.4 35.7 261.6 34.7 L 261.6 34.7 L 261.6 34.7 Q 259.9 33.7 259.4 32 L 259.4 32 L 259.4 32 Q 258.3 33.6 256.2 34.7 L 256.2 34.7 L 256.2 34.7 Q 254 35.7 251.1 35.7 L 251.1 35.7 L 251.1 35.7 Q 248.2 35.7 245.8 34.9 L 245.8 34.9 L 245.8 34.9 Q 243.4 34.1 241.9 32.5 Z M 255.4 6.5 L 255.4 6.5 L 255.4 6.5 Q 254.7 7.7 254.1 9.6 L 254.1 9.6 L 254.1 9.6 Q 253.4 11.6 252.4 16.8 L 252.4 16.8 L 252.4 16.8 Q 251.3 22 251.3 25.7 L 251.3 25.7 L 251.3 25.7 Q 251.3 29.4 251.9 30.5 L 251.9 30.5 L 251.9 30.5 Q 252.5 31.6 253.5 31.6 L 253.5 31.6 L 253.5 31.6 Q 255.5 31.6 257 29.6 L 257 29.6 L 257 29.6 Q 258.5 27.7 259.1 24.2 L 259.1 24.2 L 262.5 5.5 L 262.5 5.5 Q 261.2 4.3 259.6 4.3 L 259.6 4.3 L 259.6 4.3 Q 258 4.3 257.1 4.8 L 257.1 4.8 L 257.1 4.8 Q 256.2 5.3 255.4 6.5 Z M 294.6 30.9 L 294.6 30.9 L 294.6 30.9 Q 292.6 35.7 286.3 35.7 L 286.3 35.7 L 286.3 35.7 Q 283.1 35.7 281.1 33.4 L 281.1 33.4 L 281.1 33.4 Q 279.4 31.6 279.4 29.5 L 279.4 29.5 L 279.4 29.5 Q 279.4 24.7 281.6 14.2 L 281.6 14.2 L 286.3 -10.4 L 299.3 -11.7 L 293.1 20.7 L 293.1 20.7 Q 292 25.4 292 27.1 L 292 27.1 L 292 27.1 Q 292 30.8 294.6 30.9 Z M 315.4 30.9 L 315.4 30.9 L 315.4 30.9 Q 313.4 35.7 307 35.7 L 307 35.7 L 307 35.7 Q 303.8 35.7 301.8 33.4 L 301.8 33.4 L 301.8 33.4 Q 300.1 31.6 300.1 29.5 L 300.1 29.5 L 300.1 29.5 Q 300.1 24.7 302.4 14.2 L 302.4 14.2 L 307 -10.4 L 320 -11.7 L 313.8 20.7 L 313.8 20.7 Q 312.7 25.4 312.7 27.1 L 312.7 27.1 L 312.7 27.1 Q 312.7 30.8 315.4 30.9 Z M 346.7 23.6 L 346.7 23.6 L 346.7 23.6 Q 348.3 24.7 348.3 27.1 L 348.3 27.1 L 348.3 27.1 Q 348.3 29.5 347.1 31 L 347.1 31 L 347.1 31 Q 345.9 32.5 343.9 33.6 L 343.9 33.6 L 343.9 33.6 Q 339.8 35.7 335.4 35.7 L 335.4 35.7 L 335.4 35.7 Q 331 35.7 328.4 34.7 L 328.4 34.7 L 328.4 34.7 Q 325.8 33.8 324.1 32 L 324.1 32 L 324.1 32 Q 320.7 28.6 320.7 22.4 L 320.7 22.4 L 320.7 22.4 Q 320.7 12.7 325.9 6.8 L 325.9 6.8 L 325.9 6.8 Q 331.6 0.5 341.3 0.5 L 341.3 0.5 L 341.3 0.5 Q 347.4 0.5 350.4 3 L 350.4 3 L 350.4 3 Q 352.7 5 352.7 8.1 L 352.7 8.1 L 352.7 8.1 Q 352.7 19.4 333.2 19.4 L 333.2 19.4 L 333.2 19.4 Q 333 21 333 22.4 L 333 22.4 L 333 22.4 Q 333 25.4 334.3 26.5 L 334.3 26.5 L 334.3 26.5 Q 335.6 27.6 338 27.6 L 338 27.6 L 338 27.6 Q 340.5 27.6 343 26.5 L 343 26.5 L 343 26.5 Q 345.6 25.4 346.7 23.6 Z M 333.7 16.6 L 333.7 16.6 L 333.7 16.6 Q 338.2 16.6 340.8 13.8 L 340.8 13.8 L 340.8 13.8 Q 343.5 11.1 343.5 6.8 L 343.5 6.8 L 343.5 6.8 Q 343.5 5.3 342.9 4.5 L 342.9 4.5 L 342.9 4.5 Q 342.4 3.7 341.3 3.7 L 341.3 3.7 L 341.3 3.7 Q 340.2 3.7 339.3 4.2 L 339.3 4.2 L 339.3 4.2 Q 338.3 4.6 337.4 6 L 337.4 6 L 337.4 6 Q 335 9.2 333.7 16.6 Z M 374.9 16.4 L 374.9 16.4 L 374.9 16.4 Q 377.2 12.3 377.2 8.2 L 377.2 8.2 L 377.2 8.2 Q 377.2 5.4 375.2 5.4 L 375.2 5.4 L 375.2 5.4 Q 373.7 5.4 372.1 8 L 372.1 8 L 372.1 8 Q 370.4 10.7 369.9 14.1 L 369.9 14.1 L 366.6 34.4 L 353.3 35.7 L 359.8 1.8 L 370.4 0.5 L 369.3 6.9 L 369.3 6.9 Q 372.4 0.5 379.4 0.5 L 379.4 0.5 L 379.4 0.5 Q 383.1 0.5 385.2 2.4 L 385.2 2.4 L 385.2 2.4 Q 387.2 4.3 387.2 8.3 L 387.2 8.3 L 387.2 8.3 Q 387.2 12.2 384.6 14.7 L 384.6 14.7 L 384.6 14.7 Q 382 17.2 377.6 17.2 L 377.6 17.2 L 377.6 17.2 Q 375.7 17.2 374.9 16.4 Z M 408.5 27.2 L 408.5 27.2 L 408.5 27.2 Q 405.2 30.6 399.1 30.6 L 399.1 30.6 L 399.1 30.6 Q 391.5 30.6 389.9 25.1 L 389.9 25.1 L 389.9 25.1 Q 389.4 23.4 389.4 21.5 L 389.4 21.5 L 389.4 21.5 Q 389.4 19.7 389.8 17.8 L 389.8 17.8 L 392.8 1.8 L 405.8 0.5 L 402.3 19.1 L 402.3 19.1 Q 402.1 19.9 402 20.8 L 402 20.8 L 402 20.8 Q 401.8 21.7 401.8 22.7 L 401.8 22.7 L 401.8 22.7 Q 401.8 23.6 402.1 24.2 L 402.1 24.2 L 402.1 24.2 Q 402.4 24.8 402.9 25.2 L 402.9 25.2 L 402.9 25.2 Q 403.6 25.7 405 25.7 L 405 25.7 L 405 25.7 Q 406.4 25.7 407.6 24 L 407.6 24 L 407.6 24 Q 408.7 22.4 409.3 19.5 L 409.3 19.5 L 412.8 1.8 L 425.4 0.5 L 420.6 25.6 L 420.6 25.6 Q 418.3 37.9 413.4 42.8 L 413.4 42.8 L 413.4 42.8 Q 410.9 45.3 407.7 46.3 L 407.7 46.3 L 407.7 46.3 Q 404.5 47.3 400.3 47.3 L 400.3 47.3 L 400.3 47.3 Q 393.6 47.3 389.7 45.2 L 389.7 45.2 L 389.7 45.2 Q 385.9 43 385.9 39.5 L 385.9 39.5 L 385.9 39.5 Q 385.9 36.9 387.9 35.4 L 387.9 35.4 L 387.9 35.4 Q 389.9 33.9 392.9 33.9 L 392.9 33.9 L 392.9 33.9 Q 395.6 33.9 397.7 35 L 397.7 35 L 397.7 35 Q 398.9 35.7 399.5 36.6 L 399.5 36.6 L 399.5 36.6 Q 398 37.9 398 40 L 398 40 L 398 40 Q 398 42.9 400.5 42.9 L 400.5 42.9 L 400.5 42.9 Q 404.8 42.9 407.2 33.1 L 407.2 33.1 L 407.2 33.1 Q 407.9 30.2 408.5 27.2 Z" fill="#cccccc"></path></g></g><style>text {
  font-size: 64px;
  font-family: Arial Black;
  dominant-baseline: central;
  text-anchor: middle;
}</style></svg>